<svg width="1165" height="441" viewBox="0 0 1165 441" fill="none" xmlns="http://www.w3.org/2000/svg">
<path d="M0 188C0 84.4466 83.9466 0.5 187.5 0.5C291.053 0.5 375 84.4466 375 188H300C300 125.868 249.632 75.5 187.5 75.5C125.368 75.5 75 125.868 75 188H0ZM75 188M337.5 437.934H37.5H337.5M0 437.934V188C0 84.4466 83.9466 0.5 187.5 0.5V75.5C125.368 75.5 75 125.868 75 188V437.934H0ZM187.5 0.5C291.053 0.5 375 84.4466 375 188V437.934H300V188C300 125.868 249.632 75.5 187.5 75.5V0.5Z" fill="#450CCA"/>
<path d="M139.487 277.021C137.612 275.145 136.558 272.602 136.558 269.949L136.558 192.168C136.558 183.259 147.33 178.797 153.629 185.097L353.31 384.777L300.277 437.81L139.487 277.021Z" fill="#450CCA"/>
<path d="M481.654 258.849C477.161 258.849 473.725 257.594 471.347 255.083C468.968 252.572 467.779 249.07 467.779 244.578V129.812C467.779 125.32 469.034 121.818 471.545 119.307C474.188 116.796 477.756 115.541 482.249 115.541C486.213 115.541 489.318 116.334 491.565 117.92C493.943 119.373 496.124 121.95 498.106 125.65L543.893 209.296H537.154L582.941 125.65C584.923 121.95 587.037 119.373 589.283 117.92C591.662 116.334 594.767 115.541 598.599 115.541C603.092 115.541 606.528 116.796 608.907 119.307C611.417 121.818 612.673 125.32 612.673 129.812V244.578C612.673 249.07 611.483 252.572 609.105 255.083C606.726 257.594 603.29 258.849 598.798 258.849C594.305 258.849 590.803 257.594 588.292 255.083C585.914 252.572 584.725 249.07 584.725 244.578V164.301H589.085L552.218 230.306C550.632 232.817 548.914 234.733 547.064 236.054C545.346 237.244 543.034 237.838 540.127 237.838C537.22 237.838 534.841 237.178 532.991 235.856C531.141 234.535 529.489 232.685 528.036 230.306L490.772 164.103H495.529V244.578C495.529 249.07 494.34 252.572 491.961 255.083C489.715 257.594 486.279 258.849 481.654 258.849ZM674.312 259.245C666.119 259.245 659.314 257.726 653.896 254.686C648.478 251.647 644.448 247.088 641.805 241.01C639.294 234.799 638.039 227.135 638.039 218.017V173.221C638.039 168.2 639.294 164.434 641.805 161.923C644.448 159.412 648.148 158.157 652.905 158.157C657.662 158.157 661.362 159.412 664.005 161.923C666.648 164.434 667.969 168.2 667.969 173.221V218.81C667.969 224.624 669.159 228.985 671.537 231.892C673.916 234.667 677.682 236.054 682.835 236.054C688.517 236.054 693.142 234.072 696.71 230.108C700.41 226.012 702.26 220.66 702.26 214.053V173.221C702.26 168.2 703.515 164.434 706.026 161.923C708.669 159.412 712.369 158.157 717.126 158.157C722.015 158.157 725.715 159.412 728.226 161.923C730.869 164.434 732.19 168.2 732.19 173.221V243.586C732.19 253.761 727.367 258.849 717.721 258.849C712.964 258.849 709.33 257.527 706.819 254.885C704.308 252.242 703.053 248.476 703.053 243.586V230.306L706.026 238.037C703.119 244.776 698.956 249.995 693.539 253.695C688.121 257.395 681.712 259.245 674.312 259.245ZM790.434 259.245C778.673 259.245 769.886 256.008 764.071 249.533C758.257 242.926 755.35 233.147 755.35 220.197V130.803C755.35 125.782 756.605 122.016 759.116 119.505C761.759 116.863 765.525 115.541 770.414 115.541C775.171 115.541 778.805 116.863 781.316 119.505C783.959 122.016 785.28 125.782 785.28 130.803V219.008C785.28 224.426 786.403 228.456 788.65 231.099C791.028 233.61 794.134 234.865 797.966 234.865C799.023 234.865 800.014 234.799 800.939 234.667C801.864 234.535 802.855 234.469 803.912 234.469C806.026 234.204 807.48 234.865 808.273 236.451C809.198 237.904 809.66 240.878 809.66 245.37C809.66 249.335 808.867 252.374 807.282 254.488C805.696 256.47 803.251 257.792 799.948 258.452C798.627 258.585 797.107 258.717 795.389 258.849C793.671 259.113 792.019 259.245 790.434 259.245ZM854.26 259.245C847.124 259.245 840.715 257.858 835.033 255.083C829.351 252.308 824.924 248.542 821.753 243.785C818.581 239.028 816.996 233.676 816.996 227.729C816.996 220.594 818.846 214.978 822.546 210.881C826.246 206.653 832.258 203.68 840.583 201.962C848.908 200.112 859.942 199.187 873.685 199.187H884.19V214.647H873.883C867.144 214.647 861.66 215.044 857.431 215.837C853.335 216.497 850.362 217.687 848.512 219.405C846.794 221.122 845.935 223.501 845.935 226.54C845.935 230.24 847.19 233.279 849.701 235.658C852.344 238.037 856.11 239.226 860.999 239.226C864.831 239.226 868.201 238.367 871.108 236.649C874.147 234.799 876.526 232.354 878.243 229.315C879.961 226.144 880.82 222.576 880.82 218.612V195.817C880.82 190.003 879.499 185.907 876.856 183.528C874.213 181.017 869.72 179.762 863.378 179.762C859.81 179.762 855.912 180.224 851.683 181.149C847.587 181.942 843.028 183.33 838.006 185.312C835.099 186.633 832.522 186.964 830.276 186.303C828.03 185.51 826.312 184.189 825.122 182.339C823.933 180.357 823.339 178.242 823.339 175.996C823.339 173.617 823.999 171.371 825.321 169.257C826.642 167.01 828.822 165.359 831.862 164.301C838.072 161.791 843.887 160.073 849.304 159.148C854.854 158.223 859.942 157.76 864.567 157.76C874.742 157.76 883.067 159.28 889.542 162.319C896.149 165.226 901.104 169.785 904.408 175.996C907.711 182.074 909.363 189.937 909.363 199.583V243.586C909.363 248.476 908.174 252.242 905.795 254.885C903.416 257.527 899.981 258.849 895.488 258.849C890.995 258.849 887.493 257.527 884.983 254.885C882.604 252.242 881.415 248.476 881.415 243.586V236.253L882.802 237.442C882.01 241.935 880.292 245.833 877.649 249.136C875.138 252.308 871.901 254.819 867.936 256.669C863.972 258.386 859.413 259.245 854.26 259.245ZM946.754 258.651C941.865 258.651 938.099 257.263 935.456 254.488C932.945 251.581 931.69 247.551 931.69 242.397V174.608C931.69 169.323 932.945 165.292 935.456 162.517C938.099 159.61 941.865 158.157 946.754 158.157C951.511 158.157 955.145 159.61 957.656 162.517C960.298 165.292 961.62 169.323 961.62 174.608V242.397C961.62 247.551 960.364 251.581 957.854 254.488C955.343 257.263 951.643 258.651 946.754 258.651ZM946.754 141.903C941.204 141.903 936.909 140.648 933.87 138.137C930.963 135.494 929.509 131.795 929.509 127.037C929.509 122.148 930.963 118.448 933.87 115.938C936.909 113.295 941.204 111.973 946.754 111.973C952.304 111.973 956.532 113.295 959.439 115.938C962.347 118.448 963.8 122.148 963.8 127.037C963.8 131.795 962.347 135.494 959.439 138.137C956.532 140.648 952.304 141.903 946.754 141.903Z" fill="#121212"/>
<path d="M479.474 437.934C476.567 437.934 474.32 437.207 472.734 435.754C471.281 434.168 470.554 431.922 470.554 429.015V307.114C470.554 304.207 471.281 302.026 472.734 300.573C474.32 298.987 476.567 298.194 479.474 298.194H517.729C540.325 298.194 557.768 304.141 570.057 316.033C582.346 327.926 588.491 345.237 588.491 367.965C588.491 379.329 586.905 389.372 583.734 398.093C580.694 406.683 576.135 413.95 570.057 419.897C563.978 425.843 556.578 430.336 547.857 433.375C539.136 436.414 529.093 437.934 517.729 437.934H479.474ZM486.808 424.059H516.539C525.789 424.059 533.784 422.87 540.523 420.491C547.395 418.113 553.077 414.611 557.569 409.986C562.194 405.361 565.63 399.547 567.876 392.543C570.123 385.408 571.246 377.215 571.246 367.965C571.246 349.333 566.687 335.392 557.569 326.142C548.452 316.76 534.775 312.069 516.539 312.069H486.808V424.059ZM645.811 439.718C639.204 439.718 633.258 438.463 627.972 435.952C622.819 433.309 618.722 429.741 615.683 425.248C612.644 420.756 611.124 415.734 611.124 410.184C611.124 403.049 612.908 397.433 616.476 393.336C620.176 389.24 626.188 386.333 634.513 384.615C642.97 382.897 654.467 382.038 669.002 382.038H677.922V392.543H669.2C658.497 392.543 650.04 393.072 643.829 394.129C637.751 395.054 633.456 396.706 630.945 399.084C628.567 401.463 627.377 404.833 627.377 409.193C627.377 414.611 629.227 419.038 632.927 422.473C636.76 425.909 641.913 427.627 648.388 427.627C653.674 427.627 658.299 426.372 662.263 423.861C666.359 421.35 669.531 417.915 671.777 413.554C674.156 409.193 675.345 404.172 675.345 398.49V375.894C675.345 367.701 673.693 361.82 670.39 358.253C667.086 354.553 661.668 352.703 654.136 352.703C649.511 352.703 644.886 353.297 640.261 354.487C635.636 355.676 630.747 357.592 625.594 360.235C623.744 361.16 622.158 361.49 620.836 361.226C619.515 360.829 618.458 360.103 617.665 359.045C616.872 357.988 616.41 356.799 616.278 355.478C616.145 354.024 616.41 352.637 617.07 351.315C617.863 349.994 619.053 348.937 620.638 348.144C626.452 345.237 632.201 343.122 637.883 341.801C643.565 340.48 648.983 339.819 654.136 339.819C662.461 339.819 669.332 341.206 674.75 343.981C680.168 346.624 684.198 350.72 686.841 356.27C689.484 361.688 690.806 368.692 690.806 377.281V430.997C690.806 433.639 690.145 435.688 688.823 437.141C687.634 438.595 685.85 439.322 683.472 439.322C680.961 439.322 679.045 438.595 677.723 437.141C676.402 435.688 675.741 433.639 675.741 430.997V415.536H677.525C676.468 420.557 674.42 424.852 671.381 428.42C668.474 431.988 664.84 434.763 660.479 436.745C656.118 438.727 651.229 439.718 645.811 439.718ZM728.718 439.322C726.076 439.322 724.027 438.595 722.574 437.141C721.252 435.688 720.592 433.639 720.592 430.997V348.342C720.592 345.699 721.252 343.717 722.574 342.396C723.895 340.942 725.811 340.215 728.322 340.215C730.833 340.215 732.749 340.942 734.07 342.396C735.524 343.717 736.25 345.699 736.25 348.342V364.397H734.268C736.383 356.601 740.413 350.588 746.359 346.36C752.306 342.131 759.64 339.885 768.361 339.621C770.343 339.488 771.929 339.951 773.118 341.008C774.307 341.933 774.968 343.585 775.1 345.963C775.232 348.21 774.704 349.994 773.514 351.315C772.325 352.637 770.475 353.429 767.964 353.694L764.793 354.09C755.807 354.883 748.87 357.79 743.981 362.811C739.224 367.701 736.845 374.44 736.845 383.029V430.997C736.845 433.639 736.118 435.688 734.665 437.141C733.343 438.595 731.361 439.322 728.718 439.322ZM799.559 438.925C796.916 438.925 794.934 438.198 793.613 436.745C792.291 435.159 791.631 432.979 791.631 430.204V349.135C791.631 346.36 792.291 344.246 793.613 342.792C794.934 341.338 796.916 340.612 799.559 340.612C802.07 340.612 804.052 341.338 805.506 342.792C806.959 344.246 807.686 346.36 807.686 349.135V430.204C807.686 432.979 806.959 435.159 805.506 436.745C804.184 438.198 802.202 438.925 799.559 438.925ZM799.559 318.412C796.256 318.412 793.679 317.553 791.829 315.835C789.979 313.985 789.054 311.54 789.054 308.501C789.054 305.33 789.979 302.951 791.829 301.366C793.679 299.648 796.256 298.789 799.559 298.789C802.995 298.789 805.572 299.648 807.29 301.366C809.14 302.951 810.065 305.33 810.065 308.501C810.065 311.54 809.14 313.985 807.29 315.835C805.572 317.553 802.995 318.412 799.559 318.412Z" fill="#121212"/>
<path d="M860.424 439.718C855.799 439.718 852.231 438.463 849.72 435.952C847.341 433.309 846.152 429.609 846.152 424.852V311.871C846.152 306.849 847.341 303.017 849.72 300.374C852.231 297.732 855.534 296.41 859.631 296.41C863.198 296.41 865.907 297.137 867.757 298.591C869.74 299.912 871.986 302.158 874.497 305.33L944.069 393.931H938.718V311.078C938.718 306.453 939.907 302.885 942.285 300.374C944.796 297.732 948.364 296.41 952.989 296.41C957.614 296.41 961.116 297.732 963.494 300.374C966.005 302.885 967.26 306.453 967.26 311.078V425.447C967.26 429.807 966.137 433.309 963.891 435.952C961.644 438.463 958.605 439.718 954.773 439.718C951.073 439.718 948.1 438.991 945.853 437.538C943.739 436.084 941.426 433.772 938.916 430.6L869.541 341.999H874.695V424.852C874.695 429.609 873.506 433.309 871.127 435.952C868.748 438.463 865.181 439.718 860.424 439.718Z" fill="#450CCA"/>
<path d="M1039.59 440.114C1029.15 440.114 1020.04 438.066 1012.24 433.97C1004.58 429.873 998.63 423.993 994.401 416.329C990.173 408.665 988.059 399.613 988.059 389.174C988.059 381.377 989.248 374.374 991.626 368.163C994.005 361.953 997.441 356.667 1001.93 352.306C1006.56 347.813 1012.04 344.444 1018.39 342.197C1024.73 339.819 1031.8 338.63 1039.59 338.63C1050.03 338.63 1059.08 340.678 1066.75 344.774C1074.55 348.871 1080.56 354.685 1084.79 362.217C1089.15 369.749 1091.33 378.735 1091.33 389.174C1091.33 397.102 1090.07 404.172 1087.56 410.383C1085.18 416.593 1081.75 421.945 1077.25 426.438C1072.76 430.931 1067.28 434.366 1060.8 436.745C1054.46 438.991 1047.39 440.114 1039.59 440.114ZM1039.59 417.716C1043.95 417.716 1047.72 416.659 1050.89 414.545C1054.06 412.431 1056.57 409.325 1058.42 405.229C1060.27 401 1061.2 395.649 1061.2 389.174C1061.2 379.527 1059.22 372.458 1055.25 367.965C1051.29 363.34 1046.07 361.028 1039.59 361.028C1035.37 361.028 1031.6 362.019 1028.3 364.001C1025.12 365.983 1022.61 369.088 1020.76 373.317C1019.05 377.413 1018.19 382.699 1018.19 389.174C1018.19 398.82 1020.17 406.022 1024.13 410.779C1028.1 415.404 1033.25 417.716 1039.59 417.716ZM1144.62 440.114C1132.86 440.114 1124.07 436.877 1118.26 430.402C1112.44 423.795 1109.54 414.016 1109.54 401.067V311.673C1109.54 306.651 1110.79 302.885 1113.3 300.374C1115.95 297.732 1119.71 296.41 1124.6 296.41C1129.36 296.41 1132.99 297.732 1135.5 300.374C1138.15 302.885 1139.47 306.651 1139.47 311.673V399.877C1139.47 405.295 1140.59 409.325 1142.84 411.968C1145.21 414.479 1148.32 415.734 1152.15 415.734C1153.21 415.734 1154.2 415.668 1155.13 415.536C1156.05 415.404 1157.04 415.338 1158.1 415.338C1160.21 415.074 1161.67 415.734 1162.46 417.32C1163.38 418.774 1163.85 421.747 1163.85 426.24C1163.85 430.204 1163.05 433.243 1161.47 435.357C1159.88 437.339 1157.44 438.661 1154.13 439.322C1152.81 439.454 1151.29 439.586 1149.58 439.718C1147.86 439.982 1146.21 440.114 1144.62 440.114Z" fill="#121212"/>
</svg>
